<svg width="12" height="14" viewBox="0 0 12 14" fill="none" xmlns="http://www.w3.org/2000/svg">
<path d="M10.5 14C10.8978 14 11.2794 13.8525 11.5607 13.5899C11.842 13.3274 12 12.9713 12 12.6V4.2L7.5 0H1.5C1.10218 0 0.720644 0.1475 0.43934 0.41005C0.158035 0.672601 0 1.0287 0 1.4V12.6C0 12.9713 0.158035 13.3274 0.43934 13.5899C0.720644 13.8525 1.10218 14 1.5 14H10.5ZM6.75 1.4L10.5 4.9H6.75V1.4ZM2.25 4.2H4.5V5.6H2.25V4.2ZM2.25 7H9.75V8.4H2.25V7ZM2.25 9.8H9.75V11.2H2.25V9.8Z" fill="#32475C" fill-opacity="0.54"/>
</svg>
