<svg width="12" height="14" viewBox="0 0 12 14" fill="none" xmlns="http://www.w3.org/2000/svg">
<path d="M10.5 14C10.8978 14 11.2794 13.8525 11.5607 13.5899C11.842 13.3274 12 12.9713 12 12.6V9.1L8.25 11.9V9.8H3V8.4H8.25V6.3L12 9.1V4.2L7.5 0H1.5C1.10218 0 0.720644 0.1475 0.43934 0.41005C0.158035 0.672601 0 1.0287 0 1.4V12.6C0 12.9713 0.158035 13.3274 0.43934 13.5899C0.720644 13.8525 1.10218 14 1.5 14H10.5ZM6.75 1.4L10.5 4.9H6.75V1.4Z" fill="url(#paint0_linear_784_1180)"/>
<defs>
<linearGradient id="paint0_linear_784_1180" x1="6" y1="0" x2="6" y2="14" gradientUnits="userSpaceOnUse">
<stop stop-color="#0707B4"/>
<stop offset="1" stop-color="#020242"/>
</linearGradient>
</defs>
</svg>
