<svg width="33" height="33" viewBox="0 0 33 33" fill="none" xmlns="http://www.w3.org/2000/svg">
<path d="M16.25 32.5C25.2246 32.5 32.5 25.2246 32.5 16.25C32.5 7.27537 25.2246 0 16.25 0C7.27537 0 0 7.27537 0 16.25C0 25.2246 7.27537 32.5 16.25 32.5Z" fill="#4B83C1"/>
<path d="M23.1224 16.1821H20.1432C19.4661 16.1821 18.8906 16.7577 18.8906 17.4347C18.8906 18.1118 19.4661 18.6873 20.1432 18.6873H21.8698V21.9035H10.6302V18.6873H12.3568C13.0339 18.6873 13.6094 18.1118 13.6094 17.4347C13.6094 16.7577 13.0339 16.1821 12.3568 16.1821H9.3776C8.70052 16.1821 8.125 16.7577 8.125 17.4347V23.1561C8.125 23.8332 8.70052 24.4087 9.3776 24.4087H23.1224C23.7995 24.4087 24.375 23.8332 24.375 23.1561V17.4347C24.375 16.7238 23.7995 16.1821 23.1224 16.1821Z" fill="white"/>
<path d="M13.6431 13.237C13.9816 13.237 14.2863 13.1016 14.5233 12.8646L14.9972 12.3906V18.5859C14.9972 19.263 15.5728 19.8385 16.2498 19.8385C16.9269 19.8385 17.5024 19.263 17.5024 18.5859V12.3906L17.9764 12.8646C18.2134 13.1016 18.5181 13.237 18.8566 13.237C19.1951 13.237 19.4998 13.1016 19.7368 12.8646C19.9738 12.6276 20.1092 12.3229 20.1092 11.9844C20.1092 11.6458 19.9738 11.3411 19.7368 11.1042L17.13 8.4974C17.0285 8.39583 16.8931 8.29427 16.7576 8.22656H16.7238C16.6561 8.19271 16.5884 8.19271 16.5207 8.15885H16.4868C16.4191 8.15885 16.3175 8.125 16.2498 8.125C16.1483 8.125 16.0806 8.125 16.0129 8.15885H15.979C15.9113 8.15885 15.8436 8.19271 15.7759 8.22656C15.6405 8.29427 15.505 8.36198 15.4035 8.4974L12.7967 11.1042C12.5597 11.3411 12.4243 11.6458 12.4243 11.9844C12.4243 12.3229 12.5597 12.6276 12.7967 12.8646C12.9998 13.1016 13.3045 13.237 13.6431 13.237Z" fill="white"/>
</svg>
