<svg width="17" height="17" viewBox="0 0 17 17" fill="none" xmlns="http://www.w3.org/2000/svg">
<path d="M15.1224 8.18213H12.1432C11.4661 8.18213 10.8906 8.75765 10.8906 9.43473C10.8906 10.1118 11.4661 10.6873 12.1432 10.6873H13.8698V13.9035H2.63021V10.6873H4.35677C5.03385 10.6873 5.60938 10.1118 5.60938 9.43473C5.60938 8.75765 5.03385 8.18213 4.35677 8.18213H1.3776C0.700521 8.18213 0.125 8.75765 0.125 9.43473V15.1561C0.125 15.8332 0.700521 16.4087 1.3776 16.4087H15.1224C15.7995 16.4087 16.375 15.8332 16.375 15.1561V9.43473C16.375 8.7238 15.7995 8.18213 15.1224 8.18213Z" fill="white"/>
<path d="M5.64307 5.23698C5.98161 5.23698 6.2863 5.10156 6.52327 4.86458L6.99723 4.39062V10.5859C6.99723 11.263 7.57275 11.8385 8.24984 11.8385C8.92692 11.8385 9.50244 11.263 9.50244 10.5859V4.39062L9.9764 4.86458C10.2134 5.10156 10.5181 5.23698 10.8566 5.23698C11.1951 5.23698 11.4998 5.10156 11.7368 4.86458C11.9738 4.6276 12.1092 4.32292 12.1092 3.98438C12.1092 3.64583 11.9738 3.34115 11.7368 3.10417L9.13004 0.497396C9.02848 0.395833 8.89307 0.294271 8.75765 0.226562H8.7238C8.65609 0.192708 8.58838 0.192708 8.52067 0.158854H8.48682C8.41911 0.158854 8.31755 0.125 8.24984 0.125C8.14827 0.125 8.08057 0.125 8.01286 0.158854H7.979C7.9113 0.158854 7.84359 0.192708 7.77588 0.226562C7.64046 0.294271 7.50505 0.361979 7.40348 0.497396L4.79671 3.10417C4.55973 3.34115 4.42432 3.64583 4.42432 3.98438C4.42432 4.32292 4.55973 4.6276 4.79671 4.86458C4.99984 5.10156 5.30452 5.23698 5.64307 5.23698Z" fill="white"/>
</svg>
