<svg width="12" height="14" viewBox="0 0 12 14" fill="none" xmlns="http://www.w3.org/2000/svg">
<path d="M7.5 0H1.5C1.10218 0 0.720644 0.1475 0.43934 0.41005C0.158035 0.672601 0 1.0287 0 1.4V12.6C0 12.9713 0.158035 13.3274 0.43934 13.5899C0.720644 13.8525 1.10218 14 1.5 14H10.5C10.8978 14 11.2794 13.8525 11.5607 13.5899C11.842 13.3274 12 12.9713 12 12.6V4.2L7.5 0ZM4.1235 9.933C3.89175 10.136 3.54975 10.227 3.1515 10.227C3.07428 10.2278 2.9971 10.2236 2.9205 10.2144V11.2126H2.25V8.4574C2.55259 8.41527 2.85834 8.39607 3.16425 8.4C3.582 8.4 3.879 8.4742 4.07925 8.6233C4.26975 8.7647 4.39875 8.9964 4.39875 9.2694C4.398 9.5438 4.3005 9.7755 4.1235 9.933ZM6.97875 10.8815C6.66375 11.1258 6.1845 11.242 5.59875 11.242C5.24775 11.242 4.9995 11.221 4.83075 11.2V8.4581C5.13345 8.41686 5.4391 8.39744 5.745 8.4C6.31275 8.4 6.68175 8.4952 6.96975 8.6982C7.281 8.9138 7.476 9.2575 7.476 9.751C7.476 10.2851 7.26675 10.654 6.97875 10.8815ZM9.75 8.939H8.601V9.5767H9.675V10.0905H8.601V11.2133H7.9215V8.421H9.75V8.939ZM7.5 4.9H6.75V1.4L10.5 4.9H7.5Z" fill="#32475C" fill-opacity="0.54"/>
</svg>
