<svg width="24" height="24" viewBox="0 0 24 24" fill="none" xmlns="http://www.w3.org/2000/svg">
<path d="M10.2587 19.7473C11.2306 19.7471 12.1899 19.6024 13.1066 19.3235C15.0536 18.7313 17.3302 18.7703 18.7743 20.2041L20.7683 22.1837C21.2435 22.6555 22.0104 22.6555 22.4856 22.1837C22.9657 21.7071 22.9657 20.9306 22.4856 20.454L20.5042 18.4869C19.0653 17.0583 19.0266 14.7847 19.6221 12.8464C19.9005 11.94 20.045 10.9919 20.0452 10.0314C20.0452 4.67424 15.6547 0.31543 10.2587 0.31543C4.86264 0.31543 0.472168 4.67424 0.472168 10.0314C0.472168 15.3885 4.86264 19.7473 10.2587 19.7473ZM10.2587 2.74441C14.3066 2.74441 17.5986 6.01261 17.5986 10.0314C17.5986 14.0501 14.3066 17.3183 10.2587 17.3183C6.21074 17.3183 2.9188 14.0501 2.9188 10.0314C2.9188 6.01261 6.21074 2.74441 10.2587 2.74441Z" fill="#32475C" fill-opacity="0.54"/>
<path d="M12.0577 8.22866C12.2677 8.51683 12.4279 8.85395 12.5323 9.22048C12.6908 9.77733 13.1431 10.2559 13.7221 10.2559C14.3005 10.2559 14.7772 9.78519 14.7 9.21191C14.6469 8.81801 14.5634 8.43191 14.4507 8.06018C14.2396 7.36427 13.9297 6.73252 13.5391 6.20146C12.1325 4.27914 9.8105 4.06153 8.19738 5.54865C7.81466 5.90148 7.8257 6.48692 8.13226 6.90762C8.60956 7.56262 9.65311 7.48003 10.4615 7.42146C11.0415 7.37942 11.6331 7.64908 12.0577 8.22866Z" fill="#32475C" fill-opacity="0.54"/>
</svg>
