<svg width="16" height="16" viewBox="0 0 16 16" fill="none" xmlns="http://www.w3.org/2000/svg">
<path d="M6.84236 13.684C7.52019 13.6838 8.18931 13.5825 8.8288 13.387C10.1919 12.9704 11.7882 12.9978 12.7961 14.0056L14.186 15.3954C14.5199 15.7293 15.0613 15.7293 15.3953 15.3954C15.7292 15.0614 15.7292 14.5199 15.3953 14.186L14.0057 12.7965C12.9978 11.7886 12.9706 10.1922 13.3874 8.82909C13.5831 8.18941 13.6846 7.52007 13.6847 6.84199C13.6847 3.06949 10.6151 0 6.84236 0C3.06965 0 0 3.06949 0 6.84199C0 10.6145 3.06965 13.684 6.84236 13.684ZM6.84236 1.7105C9.67253 1.7105 11.9741 4.01197 11.9741 6.84199C11.9741 9.67201 9.67253 11.9735 6.84236 11.9735C4.01219 11.9735 1.71059 9.67201 1.71059 6.84199C1.71059 4.01197 4.01219 1.7105 6.84236 1.7105Z" fill="#32475C" fill-opacity="0.54"/>
</svg>
