<svg width="31" height="31" viewBox="0 0 31 31" fill="none" xmlns="http://www.w3.org/2000/svg">
<path d="M15.8001 0C12.7938 0 9.85506 0.891464 7.35543 2.56166C4.85581 4.23186 2.90759 6.60577 1.75714 9.38321C0.606684 12.1606 0.305673 15.2169 0.892168 18.1654C1.47866 21.1139 2.92632 23.8223 5.05208 25.948C7.17784 28.0738 9.88622 29.5214 12.8347 30.1079C15.7832 30.6944 18.8395 30.3934 21.6169 29.243C24.3943 28.0925 26.7682 26.1443 28.4384 23.6447C30.1086 21.145 31.0001 18.2063 31.0001 15.2C31.0001 11.1687 29.3987 7.30253 26.5481 4.45198C23.6976 1.60142 19.8314 0 15.8001 0ZM19.9358 20.596C20.3096 20.8801 20.556 21.3005 20.6213 21.7656C20.6865 22.2306 20.5653 22.7026 20.2841 23.0787C20.1153 23.2936 19.8999 23.4675 19.6542 23.587C19.4084 23.7066 19.1387 23.7688 18.8654 23.769C18.4838 23.7754 18.1103 23.6576 17.8014 23.4333L8.83344 16.606C8.61685 16.4411 8.44129 16.2285 8.32043 15.9846C8.19957 15.7407 8.13669 15.4722 8.13669 15.2C8.13669 14.9278 8.19957 14.6593 8.32043 14.4154C8.44129 14.1715 8.61685 13.9589 8.83344 13.794L17.8014 6.96667C18.1752 6.68364 18.646 6.56066 19.1104 6.6248C19.5748 6.68894 19.9947 6.93493 20.2778 7.30867C20.5608 7.6824 20.6838 8.15326 20.6196 8.61766C20.5555 9.08206 20.3095 9.50197 19.9358 9.785L12.8234 15.2L19.9358 20.596Z" fill="url(#paint0_linear_627_1455)"/>
<defs>
<linearGradient id="paint0_linear_627_1455" x1="15.8001" y1="0" x2="15.8001" y2="30.4" gradientUnits="userSpaceOnUse">
<stop stop-color="#FFD700"/>
<stop offset="1" stop-color="#FDBB12"/>
</linearGradient>
</defs>
</svg>
