<svg width="31" height="31" viewBox="0 0 31 31" fill="none" xmlns="http://www.w3.org/2000/svg">
<path d="M15.8 0C12.7937 0 9.85494 0.891464 7.35531 2.56166C4.85569 4.23186 2.90746 6.60577 1.75701 9.38321C0.606562 12.1606 0.305551 15.2169 0.892046 18.1654C1.47854 21.1139 2.9262 23.8223 5.05196 25.948C7.17772 28.0738 9.8861 29.5214 12.8346 30.1079C15.7831 30.6944 18.8393 30.3934 21.6168 29.243C24.3942 28.0925 26.7681 26.1443 28.4383 23.6447C30.1085 21.145 31 18.2063 31 15.2C31 11.1687 29.3986 7.30253 26.548 4.45198C23.6974 1.60142 19.8313 0 15.8 0ZM19.9356 20.596C20.3095 20.8801 20.5559 21.3005 20.6212 21.7656C20.6864 22.2306 20.5652 22.7026 20.284 23.0787C20.1152 23.2936 19.8998 23.4675 19.6541 23.587C19.4083 23.7066 19.1386 23.7688 18.8653 23.769C18.4836 23.7754 18.1102 23.6576 17.8013 23.4333L8.83331 16.606C8.61673 16.4411 8.44117 16.2285 8.32031 15.9846C8.19945 15.7407 8.13657 15.4722 8.13657 15.2C8.13657 14.9278 8.19945 14.6593 8.32031 14.4154C8.44117 14.1715 8.61673 13.9589 8.83331 13.794L17.8013 6.96667C18.175 6.68364 18.6459 6.56066 19.1103 6.6248C19.5747 6.68894 19.9946 6.93493 20.2776 7.30867C20.5607 7.6824 20.6836 8.15326 20.6195 8.61766C20.5554 9.08206 20.3094 9.50197 19.9356 9.785L12.8233 15.2L19.9356 20.596Z" fill="url(#paint0_linear_284_3171)"/>
<defs>
<linearGradient id="paint0_linear_284_3171" x1="15.8" y1="0" x2="15.8" y2="30.4" gradientUnits="userSpaceOnUse">
<stop stop-color="#FFD700"/>
<stop offset="1" stop-color="#FDBB12"/>
</linearGradient>
</defs>
</svg>
