<svg width="20" height="14" viewBox="0 0 20 14" fill="none" xmlns="http://www.w3.org/2000/svg">
<path d="M10.0105 13.0603C12.0073 13.0603 13.626 11.3464 13.626 9.2323C13.626 7.11815 12.0073 5.4043 10.0105 5.4043C8.01373 5.4043 6.39502 7.11815 6.39502 9.2323C6.39502 11.3464 8.01373 13.0603 10.0105 13.0603Z" fill="white"/>
<path fill-rule="evenodd" clip-rule="evenodd" d="M18.967 7.40381C18.967 7.40381 18.4532 6.85978 17.6791 6.03924C13.4426 1.55463 6.57567 1.55463 2.33917 6.03924C1.56503 6.85978 1.0512 7.40381 1.0512 7.40381C0.801944 7.66682 0.801944 8.09555 1.0512 8.35856C1.29961 8.62247 1.70454 8.62247 1.95295 8.35856C1.95295 8.35856 2.46677 7.81453 3.24176 6.99489C6.97891 3.03719 13.0393 3.03719 16.7765 6.99489C17.5515 7.81453 18.0653 8.35856 18.0653 8.35856C18.3137 8.62247 18.7186 8.62247 18.967 8.35856C19.2163 8.09555 19.2163 7.66682 18.967 7.40381Z" fill="white"/>
<path fill-rule="evenodd" clip-rule="evenodd" d="M15.8362 1.90679L14.5602 4.24683C14.3849 4.56928 14.4896 4.9827 14.7941 5.16915C15.0987 5.3556 15.49 5.24481 15.6661 4.92236L16.9421 2.58232C17.1174 2.25897 17.0127 1.84555 16.7082 1.6591C16.4036 1.47265 16.0123 1.58344 15.8362 1.90679ZM9.37087 0.675529V3.37765C9.37087 3.75054 9.6567 4.05317 10.0089 4.05317C10.3611 4.05317 10.6469 3.75054 10.6469 3.37765V0.675529C10.6469 0.302637 10.3611 0 10.0089 0C9.6567 0 9.37087 0.302637 9.37087 0.675529ZM3.07565 2.58232L4.35171 4.92236C4.52781 5.24481 4.91913 5.3556 5.22368 5.16915C5.52823 4.9827 5.63287 4.56928 5.45763 4.24683L4.18157 1.90679C4.00547 1.58344 3.61415 1.47265 3.3096 1.6591C3.00505 1.84555 2.90041 2.25897 3.07565 2.58232Z" fill="white"/>
</svg>
