<svg width="12" height="14" viewBox="0 0 12 14" fill="none" xmlns="http://www.w3.org/2000/svg">
<path d="M7.5 0H1.5C1.10218 0 0.720644 0.1475 0.43934 0.41005C0.158035 0.672601 0 1.0287 0 1.4V12.6C0 12.9713 0.158035 13.3274 0.43934 13.5899C0.720644 13.8525 1.10218 14 1.5 14H10.5C10.8978 14 11.2794 13.8525 11.5607 13.5899C11.842 13.3274 12 12.9713 12 12.6V4.2L7.5 0ZM3.86625 10.8178C3.54675 11.0656 3.0615 11.1825 2.46825 11.1825C2.112 11.1825 1.86075 11.1615 1.68975 11.1405V8.3608C1.99648 8.31957 2.30612 8.30015 2.616 8.3027C3.192 8.3027 3.5655 8.3993 3.85725 8.6051C4.17225 8.8235 4.37025 9.1721 4.37025 9.6705C4.37025 10.213 4.15875 10.5868 3.86625 10.8178ZM6.10875 11.2C5.20875 11.2 4.683 10.5658 4.683 9.7594C4.683 8.9117 5.26275 8.2782 6.15825 8.2782C7.089 8.2782 7.5975 8.9285 7.5975 9.7097C7.59675 10.6372 6.99375 11.2 6.10875 11.2ZM9.6 10.6666C9.80625 10.6666 10.0358 10.6239 10.1715 10.5742L10.275 11.0733C10.149 11.1321 9.8655 11.1951 9.49725 11.1951C8.4495 11.1951 7.9095 10.5868 7.9095 9.7804C7.9095 8.8151 8.64675 8.2782 9.56475 8.2782C9.92025 8.2782 10.1895 8.3454 10.311 8.4042L10.1715 8.9124C9.9889 8.84197 9.79307 8.80627 9.5955 8.8074C9.051 8.8074 8.628 9.114 8.628 9.744C8.628 10.3103 8.988 10.6666 9.6 10.6666ZM7.5 4.9H6.75V1.4L10.5 4.9H7.5Z" fill="#32475C" fill-opacity="0.54"/>
</svg>
